<svg height="512pt" viewBox="0 0 512 512" width="512pt" xmlns="http://www.w3.org/2000/svg"><path d="m512 256c0 141.386719-114.613281 256-256 256s-256-114.613281-256-256 114.613281-256 256-256 256 114.613281 256 256zm0 0" fill="#025f80"/><path d="m430.257812 428.21875h-180c-5.523437 0-10-4.476562-10-10v-100c0-5.523438 4.476563-10 10-10h180c5.519532 0 10 4.476562 10 10v100c0 5.523438-4.480468 10-10 10zm0 0" fill="#3691bb"/><path d="m172.570312 104.800781c-6.875.855469-12.046874 6.6875-12.074218 13.621094-.023438 6.78125 4.890625 12.574219 11.589844 13.65625l5.8125.933594c.832031 5.003906 2.101562 9.855469 3.773437 14.519531l-4.425781 3.347656c-5.523438 4.179688-7.085938 11.816406-3.644532 17.832032 3.371094 5.886718 10.523438 8.445312 16.863282 6.03125l5.511718-2.097657c3.183594 3.859375 6.710938 7.425781 10.527344 10.664063l-2.167968 5.132812c-2.695313 6.386719-.230469 13.78125 5.757812 17.269532 5.863281 3.410156 13.339844 2.050781 17.621094-3.210938l3.710937-4.554688c4.640625 1.734376 9.476563 3.074219 14.464844 3.96875l.6875 5.515626c.859375 6.878906 6.691406 12.046874 13.621094 12.074218 6.785156.027344 12.578125-4.890625 13.65625-11.589844l.933593-5.8125c5.003907-.832031 9.855469-2.097656 14.519532-3.773437l3.347656 4.425781c4.179688 5.527344 11.816406 7.089844 17.832031 3.644532 5.886719-3.367188 8.445313-10.523438 6.03125-16.863282l-2.097656-5.507812c3.855469-3.1875 7.425781-6.710938 10.664063-10.53125l5.132812 2.167968c6.386719 2.699219 13.777344.230469 17.265625-5.757812 3.414063-5.859375 2.054687-13.335938-3.207031-17.621094l-4.554688-3.707031c1.734375-4.640625 3.074219-9.476563 3.96875-14.464844l5.515625-.6875c6.878907-.859375 12.046875-6.691406 12.074219-13.621093.027344-6.785157-4.890625-12.578126-11.589844-13.65625l-5.8125-.9375c-.832031-5-2.101562-9.855469-3.773437-14.515626l4.425781-3.347656c5.527344-4.183594 7.085938-11.816406 3.644531-17.832031-3.367187-5.886719-10.523437-8.449219-16.863281-6.03125l-5.507812 2.097656c-3.1875-3.859375-6.710938-7.429687-10.53125-10.664062l2.167968-5.136719c2.699219-6.382812.230469-13.777344-5.757812-17.265625-5.863282-3.414063-13.335938-2.050781-17.621094 3.207031l-3.707031 4.558594c-4.640625-1.734375-9.476563-3.074219-14.464844-3.972656l-.691406-5.515625c-.855469-6.875-6.6875-12.046875-13.621094-12.070313-6.78125-.027344-12.574219 4.886719-13.652344 11.585938l-.9375 5.8125c-5 .832031-9.855469 2.101562-14.515625 3.773437l-3.347656-4.421875c-4.183594-5.527344-11.816406-7.089844-17.835938-3.648437-5.886718 3.371093-8.445312 10.523437-6.03125 16.863281l2.101563 5.511719c-3.859375 3.1875-7.429687 6.710937-10.667969 10.527343l-5.132812-2.167968c-6.386719-2.695313-13.777344-.230469-17.265625 5.757812-3.414063 5.863282-2.054688 13.339844 3.207031 17.621094l4.554688 3.710938c-1.734376 4.640624-3.070313 9.476562-3.96875 14.464843zm88.441407-17.242187c17.425781.066406 31.496093 14.246094 31.429687 31.671875s-14.246094 31.5-31.671875 31.429687c-17.425781-.0625-31.5-14.246094-31.429687-31.671875.066406-17.425781 14.246094-31.496093 31.671875-31.429687zm0 0" fill="#0ed1b2"/><path d="m202.175781 118.886719c-.125 32.429687 26.0625 58.816406 58.492188 58.9375 32.425781.125 58.8125-26.0625 58.9375-58.492188.125-32.429687-26.066407-58.816406-58.492188-58.9375-32.429687-.125-58.816406 26.066407-58.9375 58.492188zm58.867188-40.011719c22.21875.085938 40.167969 18.167969 40.082031 40.386719-.085938 22.222656-18.167969 40.167969-40.386719 40.085937-22.222656-.085937-40.167969-18.167968-40.085937-40.390625.085937-22.21875 18.167968-40.167969 40.390625-40.082031zm0 0" fill="#0ab59e"/><path d="m269.808594 177.148438c-2.980469.453124-6.03125.691406-9.140625.675781-32.429688-.121094-58.617188-26.507813-58.492188-58.9375.121094-32.425781 26.507813-58.613281 58.9375-58.492188 2.949219.011719 5.851563.246094 8.683594.675781-28.105469 4.285157-49.6875 28.5-49.796875 57.816407-.109375 29.476562 21.515625 53.957031 49.808594 58.261719zm0 0" fill="#01988c"/><path d="m446.257812 311.71875h-200c-5.523437 0-10-4.476562-10-10v-150c0-5.523438 4.476563-10 10-10h200c5.519532 0 10 4.476562 10 10v150c0 5.523438-4.480468 10-10 10zm0 0" fill="#f18bc3"/><path d="m456.257812 151.71875v150c0 5.523438-4.480468 10-10 10h-99.652343l-22.71875 40.09375c-2.242188 3.960938-6.441407 6.40625-10.992188 6.40625-6.980469 0-12.636719-5.65625-12.636719-12.632812v-33.867188h-34c-5.523437 0-10-4.476562-10-10v-150c0-5.523438 4.476563-10 10-10h180c5.519532 0 10 4.480469 10 10zm0 0" fill="#f5a6d1"/><path d="m430 185.21875v11c0 1.105469-.894531 2-2 2h-107.667969c-1.101562 0-2-.894531-2-2v-11c0-1.101562.898438-2 2-2h107.667969c1.105469 0 2 .898438 2 2zm-2 58h-121c-1.105469 0-2 .898438-2 2v11c0 1.105469.894531 2 2 2h121c1.105469 0 2-.894531 2-2v-11c0-1.101562-.894531-2-2-2zm0 30h-87.667969c-1.101562 0-2 .898438-2 2v11c0 1.105469.898438 2 2 2h87.667969c1.105469 0 2-.894531 2-2v-11c0-1.101562-.894531-2-2-2zm0-60h-146c-1.105469 0-2 .898438-2 2v11c0 1.105469.894531 2 2 2h146c1.105469 0 2-.894531 2-2v-11c0-1.101562-.894531-2-2-2zm0 0" fill="#ec74b6"/><path d="m296.257812 438.21875h-250c-5.523437 0-10-4.476562-10-10v-140c0-5.523438 4.476563-10 10-10h250c5.519532 0 10 4.476562 10 10v140c0 5.523438-4.480468 10-10 10zm0 0" fill="#fc6930"/><path d="m306.257812 288.21875v177.367188c0 6.976562-5.660156 12.632812-12.636718 12.632812-4.550782 0-8.75-2.445312-10.996094-6.40625l-19.035156-33.59375h-196.566406c-5.519532 0-10-4.476562-10-10v-140c0-5.523438 4.480468-10 10-10h229.234374c5.519532 0 10 4.480469 10 10zm0 0" fill="#fd7d43"/><path d="m290.257812 340.21875v11c0 1.105469-.898437 2-2 2h-66c-1.105468 0-2-.894531-2-2v-11c0-1.105469.894532-2 2-2h66c1.101563 0 2 .898438 2 2zm-2 28h-106.257812c-1.105469 0-2 .894531-2 2v11c0 1.105469.894531 2 2 2h106.257812c1.101563 0 2-.894531 2-2v-11c0-1.101562-.898437-2-2-2zm0 30h-84.730468c-1.101563 0-2 .894531-2 2v11c0 1.105469.898437 2 2 2h84.730468c1.101563 0 2-.894531 2-2v-11c0-1.101562-.898437-2-2-2zm0 0" fill="#fc5426"/><path d="m178.140625 327.304688c-16.046875 14.261718-24.96875 34.898437-24.96875 56.371093v1.460938h-68.292969v-1.726563c0-21.652344-9.457031-42.082031-25.523437-56.601562-18.113281-16.363282-29.460938-40.074219-29.355469-66.429688.199219-49.089844 39.941406-88.660156 89.023438-88.660156 49.167968.003906 89.023437 39.859375 89.023437 89.023438.003906 26.480468-11.558594 50.253906-29.90625 66.5625zm0 0" fill="#fded32"/><path d="m153.171875 383.671875v1.464844h-45.121094v-1.726563c0-21.652344-9.457031-42.082031-25.523437-56.601562-18.113282-16.367188-29.460938-40.074219-29.355469-66.433594.183594-45.152344 33.828125-82.253906 77.429687-87.90625 43.699219 5.675781 77.449219 43.035156 77.449219 88.277344 0 26.476562-11.5625 50.25-29.910156 66.558594-16.046875 14.261718-24.96875 34.898437-24.96875 56.367187zm0 0" fill="#fdf385"/><path d="m139.554688 193.0625c3.304687-4.34375 24.367187 2.429688 37.394531 17.074219 11.167969 12.542969 16.363281 30.773437 12.195312 33.738281-5.125 3.652344-24.421875-15.84375-28.453125-19.917969-2.429687-2.453125-25.242187-25.507812-21.136718-30.894531zm0 0" fill="#fdf7bd"/><path d="m141.523438 253.21875h-45c-13.785157 0-25 11.214844-25 25 0 11.027344 8.972656 20 20 20 2.757812 0 5 2.246094 5 5v65c0 11.027344 8.972656 20 20 20h5c11.027343 0 20-8.972656 20-20v-65c0-2.753906 2.242187-5 5-5 11.027343 0 20-8.972656 20-20 0-13.785156-11.214844-25-25-25zm5 30c-11.027344 0-20 8.972656-20 20v65c0 2.757812-2.242188 5-5 5h-5c-2.757813 0-5-2.242188-5-5v-65c0-11.027344-8.972657-20-20-20-2.757813 0-5-2.242188-5-5 0-5.511719 4.488281-10 10-10h45c5.515624 0 10 4.488281 10 10 0 2.757812-2.242188 5-5 5zm0 0" fill="#e8ce00"/><path d="m164.757812 379.035156c0 5.460938-3.589843 10.082032-8.539062 11.636719v.558594c0 16.839843-13.648438 30.488281-30.488281 30.488281h-13.414063c-16.839844 0-30.488281-13.648438-30.488281-30.488281v-.558594c-4.945313-1.554687-8.539063-6.175781-8.539063-11.636719 0-6.734375 5.460938-12.191406 12.195313-12.191406h67.074219c6.738281 0 12.199218 5.457031 12.199218 12.191406zm0 0" fill="#88b9d3"/><g fill="#b3d1e1"><path d="m164.757812 379.035156c0 5.460938-3.589843 10.082032-8.539062 11.636719v.558594c0 14.640625-10.320312 26.867187-24.085938 29.808593-9.167968-1.957031-16.8125-8.042968-20.890624-16.214843-1.019532-2.042969.429687-4.445313 2.710937-4.445313h27.328125c2.570312 0 4.648438-2.125 4.570312-4.714844-.074218-2.503906-2.257812-4.433593-4.761718-4.433593h-37.917969c-6.734375 0-12.195313-5.460938-12.195313-12.195313s5.460938-12.195312 12.195313-12.195312h49.390625c6.734375.003906 12.195312 5.460937 12.195312 12.195312zm0 0"/><path d="m392.757812 388.21875c0 4.144531-3.359374 7.5-7.5 7.5-4.144531 0-7.5-3.355469-7.5-7.5 0-4.140625 3.355469-7.5 7.5-7.5 4.140626 0 7.5 3.359375 7.5 7.5zm17.5-7.5c-4.144531 0-7.5 3.359375-7.5 7.5 0 4.144531 3.355469 7.5 7.5 7.5 4.140626 0 7.5-3.355469 7.5-7.5 0-4.140625-3.359374-7.5-7.5-7.5zm25 0c-4.144531 0-7.5 3.359375-7.5 7.5 0 4.144531 3.355469 7.5 7.5 7.5 4.140626 0 7.5-3.355469 7.5-7.5 0-4.140625-3.359374-7.5-7.5-7.5zm0 0"/></g></svg>