<svg height="512pt" viewBox="0 0 512 512" width="512pt" xmlns="http://www.w3.org/2000/svg"><path d="m512 256c0 34.042969-6.644531 66.550781-18.722656 96.265625-7.398438 18.234375-16.84375 35.421875-28.046875 51.285156-10.679688 15.117188-22.957031 29.027344-36.59375 41.472657-5.746094 5.253906-11.734375 10.25-17.941407 14.960937-42.964843 32.644531-96.566406 52.015625-154.695312 52.015625-141.386719 0-256-114.613281-256-256s114.613281-256 256-256 256 114.613281 256 256zm0 0" fill="#884389"/><path d="m300.652344 113.730469c-1.945313-18.640625-17.03125-33.203125-35.734375-34.367188-73.660157-4.578125-147.320313-4.578125-220.980469 0-18.703125 1.164063-33.789062 15.726563-35.730469 34.367188-4.953125 47.496093-4.953125 94.992187 0 142.488281 1.941407 18.640625 17.027344 33.203125 35.730469 34.363281 9.078125.566407 18.152344 1.058594 27.226562 1.484375v44.632813c0 10.308593 12.914063 14.949219 19.472657 7l41.136719-49.835938c44.382812.566407 88.765624-.519531 133.144531-3.277343 18.707031-1.164063 33.789062-15.726563 35.734375-34.367188 4.949218-47.496094 4.949218-94.992188 0-142.488281zm0 0" fill="#f797bc"/><path d="m236.234375 124.828125c-35.113281-35.113281-81.804687 17.152344-81.804687 17.152344s-46.695313-52.265625-81.808594-17.152344c-39.582032 39.582031 25.070312 127.988281 81.808594 145.140625 56.734374-17.152344 121.390624-105.558594 81.804687-145.140625zm0 0" fill="#f74570"/><path d="m493.277344 352.265625c-7.398438 18.234375-16.84375 35.421875-28.046875 51.285156-2.976563.972657-6.113281 1.578125-9.363281 1.777344-9.078126.5625-18.160157 1.054687-27.230469 1.480469v38.214844c-5.746094 5.253906-11.734375 10.25-17.941407 14.960937-.542968-.449219-1.054687-.960937-1.535156-1.546875l-41.125-49.832031c-44.386718.566406-88.765625-.519531-133.152344-3.277344-18.703124-1.160156-33.792968-15.726563-35.734374-34.367187-4.953126-47.492188-4.953126-94.992188 0-142.484376 1.941406-18.640624 17.03125-33.207031 35.734374-34.367187 73.664063-4.585937 147.320313-4.585937 220.984376 0 18.703124 1.160156 33.78125 15.726563 35.726562 34.367187 4.304688 41.265626 4.867188 82.527344 1.683594 123.789063zm0 0" fill="#80ceed"/><path d="m425.171875 239.207031c-35.113281-35.109375-81.804687 17.15625-81.804687 17.15625s-46.695313-52.265625-81.808594-17.15625c-39.582032 39.585938 25.070312 127.988281 81.808594 145.140625 56.734374-17.152344 121.390624-105.554687 81.804687-145.140625zm0 0" fill="#ffe96e"/></svg>