<svg height="512pt" viewBox="0 0 512 512" width="512pt" xmlns="http://www.w3.org/2000/svg"><path d="m131.1875 113.5h247.074219v285.375h-247.074219zm0 0" fill="#00cd71"/><path d="m512 256c0 4.378906-.109375 8.738281-.328125 13.058594-.011719.28125-.023437.5625-.042969.839844-7.21875 134.921874-118.910156 242.101562-255.628906 242.101562-2.378906 0-4.738281-.03125-7.101562-.101562-3.699219-.097657-7.378907-.277344-11.027344-.527344-6.382813-.449219-12.691406-1.132813-18.929688-2.042969-1.832031-.269531-3.660156-.546875-5.472656-.859375-.019531 0-.027344-.007812-.046875-.007812-.03125-.011719-.0625-.011719-.09375-.011719-1.089844-.1875-2.179687-.378907-3.257813-.578125-1.730468-.3125-3.449218-.640625-5.171874-.992188-116.898438-23.667968-204.898438-127-204.898438-250.878906 0-141.378906 114.621094-256 256-256 116.921875 0 215.53125 78.378906 246.160156 185.46875 2.480469 8.660156 4.511719 17.5 6.070313 26.511719 1.007812 5.859375 1.828125 11.789062 2.441406 17.78125.027344.339843.066406.667969.097656 1.007812.402344 4.058594.699219 8.160157.910157 12.28125.210937 4.289063.320312 8.609375.320312 12.949219zm0 0" fill="#00ee84"/><path d="m511.671875 269.058594c-.011719.28125-.023437.5625-.042969.839844-7.21875 134.921874-118.910156 242.101562-255.628906 242.101562-2.378906 0-4.738281-.03125-7.101562-.101562-3.699219-.097657-7.378907-.277344-11.027344-.527344l-131.871094-131.871094 269.988281-246.121094zm0 0" fill="#00cd71"/><path d="m256 94.5-150 100v185h300v-185zm0 0" fill="#ebb200"/><path d="m406 194.5v185h-150v-285zm0 0" fill="#c99c47"/><path d="m136 133.378906h240v236.84375h-240zm0 0" fill="#fff"/><path d="m256 133.378906h120v236.839844h-120zm0 0" fill="#ebf6fc"/><g fill="#cde1e6"><path d="m166 163.746094h180v20h-180zm0 0"/><path d="m166 194.273438h180v20h-180zm0 0"/><path d="m166 224.800781h180v20h-180zm0 0"/></g><path d="m256 163.75h90v20h-90zm0 0" fill="#b4d2d7"/><path d="m256 194.269531h90v20h-90zm0 0" fill="#b4d2d7"/><path d="m256 224.800781h90v20h-90zm0 0" fill="#b4d2d7"/><path d="m256 294.5-150-100v185h300v-185zm0 0" fill="#ffbf00"/><path d="m406 194.5v185h-150v-85zm0 0" fill="#ebb200"/></svg>