<?xml version="1.0" encoding="iso-8859-1"?>
<!-- Generator: Adobe Illustrator 19.0.0, SVG Export Plug-In . SVG Version: 6.00 Build 0)  -->
<svg version="1.1" id="Capa_1" xmlns="http://www.w3.org/2000/svg" xmlns:xlink="http://www.w3.org/1999/xlink" x="0px" y="0px"
	 viewBox="0 0 512 512" style="enable-background:new 0 0 512 512;" xml:space="preserve">
<path style="fill:#D7875F;" d="M341.957,234.531V115.099H237.116v92.509c0,27.479,22.276,49.755,49.755,49.755h1.79v29.177
	c0,18.785,15.229,34.014,34.014,34.014h9.224c18.786,0,34.014-15.229,34.014-34.014v-52.01L341.957,234.531L341.957,234.531z"/>
<path style="fill:#475D6D;" d="M320.291,133.541h-83.175V47.913h105.92c29.717,0,53.807,24.09,53.807,53.807v112.514
	c0,18-14.592,32.592-32.592,32.592H341.63c-15.582,0-28.213-12.631-28.213-28.213V181.69c0-3.796,3.078-6.874,6.874-6.874l0,0
	c11.398,0,20.637-9.24,20.637-20.637l0,0C340.928,142.781,331.688,133.541,320.291,133.541z"/>
<path style="fill:#2C3F4F;" d="M343.036,47.913h-23.179c29.717,0,53.807,24.09,53.807,53.807v112.514
	c0,17.906-14.442,32.434-32.313,32.585c0.093,0.001,0.185,0.007,0.279,0.007h22.622c18,0,32.592-14.592,32.592-32.592V101.72
	C396.843,72.003,372.753,47.913,343.036,47.913z"/>
<path style="fill:#2BB4F3;" d="M265.249,512H78.286V349.76c0-38.477,31.192-69.668,69.668-69.668h47.626
	c38.477,0,69.668,31.192,69.668,69.668L265.249,512L265.249,512z"/>
<path style="fill:#1687C4;" d="M195.58,280.091h-23.878c35.296,0,63.908,28.613,63.908,63.908v168h29.638V349.76
	C265.249,311.283,234.057,280.091,195.58,280.091z"/>
<path style="fill:#F2A077;" d="M175.719,320.555L175.719,320.555c-21.333,0-38.626-17.293-38.626-38.626v-72.306h77.252v72.306
	C214.345,303.262,197.052,320.555,175.719,320.555z"/>
<path style="fill:#FFCCAA;" d="M288.664,95.826v81.139c0,24.677-9.998,47.025-26.171,63.186
	c-16.173,16.185-38.521,26.183-63.198,26.183c-49.366,0-89.381-40.015-89.381-89.369v-1.32h-16.41
	c-8.093,0-14.654-6.549-14.654-14.641v-9.462c0-5.976,3.573-11.106,8.703-13.384h9.96c2.963,0,5.827-0.436,8.529-1.27
	c1.332-0.398,2.627-0.896,3.872-1.494c9.973-4.656,16.87-14.779,16.87-26.507v-5.092c0-4.407,3.561-7.968,7.968-7.968
	L288.664,95.826L288.664,95.826z"/>
<path style="fill:#F2A077;" d="M261.221,95.826v81.139c0,24.677-9.998,47.025-26.171,63.186
	c-13.115,13.125-30.291,22.178-49.476,25.134c4.473,0.689,9.055,1.049,13.721,1.049c24.677,0,47.025-9.998,63.198-26.183
	c16.173-16.161,26.171-38.509,26.171-63.186V95.826H261.221z"/>
<g>
	<path style="fill:#475D6D;" d="M214.345,213.812c-13.598,0-26.647-5.768-35.801-15.824c-2.788-3.063-2.565-7.807,0.498-10.595
		c3.063-2.789,7.806-2.566,10.595,0.497c6.318,6.941,15.324,10.922,24.708,10.922s18.391-3.98,24.708-10.922
		c2.789-3.063,7.533-3.285,10.595-0.497c3.063,2.788,3.286,7.531,0.498,10.595C240.992,208.044,227.943,213.812,214.345,213.812z"/>
	<path style="fill:#475D6D;" d="M256.988,149.393c-4.142,0-7.5-3.357-7.5-7.5v-3.735c0-4.143,3.358-7.5,7.5-7.5s7.5,3.357,7.5,7.5
		v3.735C264.488,146.035,261.13,149.393,256.988,149.393z"/>
	<path style="fill:#475D6D;" d="M171.703,149.393c-4.142,0-7.5-3.357-7.5-7.5v-3.735c0-4.143,3.358-7.5,7.5-7.5s7.5,3.357,7.5,7.5
		v3.735C179.203,146.035,175.845,149.393,171.703,149.393z"/>
</g>
<path style="fill:#F9DC6A;" d="M340.93,10.616v42.729c0,23.469-19.012,42.481-42.481,42.481H134.752
	c-4.407,0-7.968,3.561-7.968,7.968v5.092c0,11.728-6.897,21.85-16.87,26.507c-1.245,0.598-2.54,1.095-3.872,1.494
	c-2.702,0.834-5.565,1.27-8.529,1.27h-10.57V55.026c0-15.426,11.554-28.387,26.868-30.155L329.102,0.07
	C335.402-0.652,340.93,4.279,340.93,10.616z"/>
<path style="fill:#E5AC51;" d="M329.102,0.07l-20.426,2.353c2.359,1.937,3.891,4.866,3.891,8.193v42.729
	c0,23.469-19.012,42.481-42.481,42.481h28.363c23.469,0,42.481-19.012,42.481-42.481V10.616
	C340.93,4.279,335.402-0.652,329.102,0.07z"/>
<path style="fill:#75DC5E;" d="M420.768,512H233.806V349.76c0-38.477,31.192-69.668,69.668-69.668H351.1
	c38.477,0,69.668,31.192,69.668,69.668V512z"/>
<path style="fill:#2AAD52;" d="M351.1,280.091h-23.878c35.296,0,63.908,28.613,63.908,63.908v168h29.638V349.76
	C420.768,311.283,389.577,280.091,351.1,280.091z"/>
<path style="fill:#1687C4;" d="M100.471,356.75L100.471,356.75c0,20.352,16.499,36.851,36.85,36.851h61.54V319.9h-61.54
	C116.97,319.9,100.471,336.398,100.471,356.75z"/>
<path style="fill:#2AAD52;" d="M302.172,303.872L302.172,303.872c-20.715,0-37.508,16.793-37.508,37.508v62.639h75.017V341.38
	C339.681,320.665,322.888,303.872,302.172,303.872z"/>
<path style="fill:#FFCCAA;" d="M349.834,334.413L349.834,334.413H198.862v44.675h150.972l0,0c0,5.407,4.383,9.79,9.79,9.79h48.199
	c14.299,0,25.891-11.592,25.891-25.891v-12.474c0-14.299-11.592-25.891-25.891-25.891h-48.199
	C354.218,324.622,349.834,329.005,349.834,334.413z"/>
<path style="fill:#D7875F;" d="M279.835,404.018v15.552c0,7.145-5.792,12.937-12.937,12.937h-63.934l0,0
	c-4.099-6.508-11.252-10.456-18.944-10.456h-30.429c-16.216,0-29.362,13.146-29.362,29.362v6.862
	c0,16.216,13.146,29.362,29.362,29.362h30.429c7.691,0,14.844-3.948,18.944-10.456l0,0h76.871h19.775
	c13.752,0,24.9-11.148,24.9-24.9v-19.775v-28.49h-44.675V404.018z"/>
<g>
</g>
<g>
</g>
<g>
</g>
<g>
</g>
<g>
</g>
<g>
</g>
<g>
</g>
<g>
</g>
<g>
</g>
<g>
</g>
<g>
</g>
<g>
</g>
<g>
</g>
<g>
</g>
<g>
</g>
</svg>
