<svg height="496pt" viewBox="0 0 496 496" width="496pt" xmlns="http://www.w3.org/2000/svg"><path d="m8 488v-72l189.601562-196.238281c2.636719 3.839843 5.679688 7.527343 9.039063 10.878906l58.71875 58.71875c3.359375 3.359375 7.039063 6.402344 10.878906 9.039063l-55.839843 53.601562-.796876 26.558594-26.640624 3.511718-4.320313 26.488282-26.640625 3.511718-4.320312 26.488282-26.640626 3.511718-4.320312 26.402344-30.238281 3.527344-16.480469 16zm0 0" fill="#e6e9ed"/><path d="m471.039062 111.039062c10.882813 10.882813 16.960938 25.601563 16.960938 40.960938s-6.078125 30.078125-16.960938 40.960938l-96.398437 96.398437c-7.28125 7.28125-15.761719 12.878906-25.039063 16.71875-9.28125 3.84375-19.363281 5.921875-29.601562 5.921875-15.761719 0-30.960938-4.800781-43.761719-13.601562-3.839843-2.636719-7.519531-5.679688-10.878906-9.039063l-58.71875-58.71875c-3.359375-3.359375-6.402344-7.039063-9.039063-10.878906-3.042968-4.472657-5.601562-9.195313-7.679687-14.160157-3.84375-9.28125-5.921875-19.363281-5.921875-29.601562 0-20.480469 8.160156-40.160156 22.640625-54.640625l96.398437-96.398437c10.882813-10.882813 25.601563-16.960938 40.960938-16.960938s30.078125 6.078125 40.960938 16.960938zm0 0" fill="#fcd770"/><path d="m272 120 104 104-40 40c-28.71875 0-54.71875-11.679688-73.519531-30.480469s-30.480469-44.800781-30.480469-73.519531zm0 0" fill="#aab2bd"/><path d="m400 200-104-104 40-40c28.71875 0 54.71875 11.679688 73.519531 30.480469s30.480469 44.800781 30.480469 73.519531zm0 0" fill="#aab2bd"/><path d="m312 200c0 8.835938-7.164062 16-16 16s-16-7.164062-16-16 7.164062-16 16-16 16 7.164062 16 16zm0 0" fill="#b4dd7f"/><path d="m392 120c0 8.835938-7.164062 16-16 16s-16-7.164062-16-16 7.164062-16 16-16 16 7.164062 16 16zm0 0" fill="#b4dd7f"/><g fill="#1e1713"><path d="m476.6875 105.375-86.0625-86.0625c-12.449219-12.457031-29.007812-19.3125-46.625-19.3125s-34.175781 6.855469-46.625 19.3125l-96.398438 96.40625c-16.113281 16.105469-24.976562 37.503906-24.976562 60.28125 0 15.246094 4.054688 29.839844 11.519531 42.679688l-187.519531 194.089843v83.230469h83.238281l16.898438-16.367188 33.519531-3.871093 4.328125-26.554688 26.589844-3.496093 4.355469-26.488282 26.613281-3.511718 4.359375-26.496094 27.511718-3.65625.875-30.046875 49.007813-47.039063c12.847656 7.464844 27.445313 11.527344 42.703125 11.527344 22.769531 0 44.175781-8.863281 60.289062-24.96875l96.398438-96.40625c12.457031-12.457031 19.3125-29.015625 19.3125-46.625s-6.855469-34.167969-19.3125-46.625zm-264.199219 243.121094-.664062 23-25.785157 3.425781-4.351562 26.484375-26.625 3.515625-4.34375 26.484375-26.605469 3.496094-4.296875 26.371094-26.914062 3.109374-16.140625 15.617188h-49.449219l26.34375-26.34375-11.3125-11.3125-26.34375 26.34375v-49.457031l181-187.328125c1.296875 1.480468 2.566406 2.976562 3.976562 4.378906l58.742188 58.75c1.402344 1.402344 2.882812 2.664062 4.359375 3.953125zm252.886719-161.183594-96.398438 96.40625c-13.089843 13.082031-30.480468 20.28125-48.976562 20.28125s-35.886719-7.199219-48.976562-20.28125l-58.742188-58.75c-13.082031-13.082031-20.28125-30.472656-20.28125-48.96875s7.199219-35.886719 20.289062-48.96875l96.398438-96.40625c9.433594-9.433594 21.96875-14.625 35.3125-14.625s25.878906 5.191406 35.3125 14.625l86.0625 86.0625c9.433594 9.441406 14.625 21.976562 14.625 35.3125s-5.191406 25.871094-14.625 35.3125zm0 0"/><path d="m90.339844 394.34375 119.996094-120 11.3125 11.316406-119.996094 119.996094zm0 0"/><path d="m58.339844 426.339844 16-15.996094 11.3125 11.3125-15.996094 15.996094zm0 0"/><path d="m224 156.6875v3.3125c0 61.761719 50.238281 112 112 112h3.3125l48-48-115.3125-115.3125zm108.742188 99.257812c-50.34375-1.6875-91-42.335937-92.6875-92.6875l31.945312-31.945312 92.6875 92.6875zm0 0"/><path d="m336 48h-3.3125l-48 48 115.3125 115.3125 48-48v-3.3125c0-61.761719-50.238281-112-112-112zm64 140.6875-92.6875-92.6875 31.945312-31.945312c50.34375 1.6875 91 42.335937 92.6875 92.6875zm0 0"/><path d="m376 96c-13.230469 0-24 10.769531-24 24s10.769531 24 24 24 24-10.769531 24-24-10.769531-24-24-24zm0 32c-4.40625 0-8-3.585938-8-8s3.59375-8 8-8 8 3.585938 8 8-3.59375 8-8 8zm0 0"/><path d="m296 224c13.230469 0 24-10.769531 24-24s-10.769531-24-24-24-24 10.769531-24 24 10.769531 24 24 24zm0-32c4.40625 0 8 3.585938 8 8s-3.59375 8-8 8-8-3.585938-8-8 3.59375-8 8-8zm0 0"/></g></svg>